<svg width="28" height="36" viewBox="0 0 28 36" fill="none" xmlns="http://www.w3.org/2000/svg">
<path d="M23.3745 11.6239C23.1428 11.3988 22.8178 11.2965 22.4997 11.3488C22.1811 11.4009 21.9058 11.601 21.758 11.8881C21.2496 12.8758 20.6038 13.7834 19.844 14.5858C19.9198 14.0062 19.9579 13.4231 19.9579 12.8385C19.9579 11.7167 19.8076 10.5623 19.5109 9.40691C18.5355 5.61203 15.9778 2.40277 12.4938 0.602045C12.1905 0.445321 11.829 0.450823 11.5306 0.616719C11.2322 0.782681 11.0367 1.08696 11.01 1.42731C10.7383 4.87591 8.96202 8.01338 6.13371 10.0373C6.09628 10.0642 6.05912 10.0915 6.02196 10.1187C5.94498 10.175 5.87242 10.2283 5.80464 10.273C5.79402 10.2801 5.7835 10.2873 5.77318 10.2947C3.99439 11.5682 2.52669 13.2659 1.5285 15.2047C0.514258 17.1767 0 19.293 0 21.4944C0 22.6158 0.150336 23.7702 0.446865 24.9258C2.01173 31.0166 7.49293 35.2704 13.7762 35.2704C21.372 35.2704 27.5515 29.0905 27.5515 21.4944C27.5515 17.7485 26.0681 14.2431 23.3745 11.6239Z" fill="#CBCFFA"/>
<path d="M13.2487 25.7843C15.5772 25.7843 17.4648 23.8968 17.4648 21.5683C17.4648 19.2399 15.5772 17.3523 13.2487 17.3523C10.9203 17.3523 9.03271 19.2399 9.03271 21.5683C9.03271 23.8968 10.9203 25.7843 13.2487 25.7843Z" fill="#F8F8F8"/>
</svg>
