<svg width="22" height="20" viewBox="0 0 22 20" fill="none" xmlns="http://www.w3.org/2000/svg">
<path fill-rule="evenodd" clip-rule="evenodd" d="M9.08081 3.17508C9.05547 2.63937 9.06054 2.11784 9.08588 1.62824C9.17204 0.155905 10.5405 0.160978 10.6469 0.163005C10.8699 0.168073 11.8634 0.230913 12.1016 1.37888C12.1168 1.4473 12.1522 1.94298 12.1624 2.13405C12.1827 2.54154 12.1928 2.94195 12.137 3.34386C12.1877 4.02555 12.2992 4.727 12.5121 5.38689C12.8212 6.36101 13.323 7.26012 14.2302 7.73908C15.8521 8.60069 17.9858 8.56571 19.7699 8.78466C20.5149 8.87589 21.0826 9.49725 21.1079 10.2474C21.1282 10.998 20.6011 11.6528 19.8611 11.7891C17.6311 12.2017 15.0665 14.2295 13.4345 15.8625C12.9327 16.3643 12.3701 17.5594 11.7417 18.3247C11.2348 18.938 10.6722 19.349 10.1401 19.5122C9.93227 19.5756 8.78179 19.8067 8.26482 18.6156C8.12291 18.2811 7.62115 16.5295 7.57554 16.3298C7.30185 15.1854 6.91162 14.1631 6.1463 13.2528C5.48235 12.4637 4.67646 11.7744 3.70842 11.3923C3.31816 11.2382 2.91269 11.1211 2.50723 11.0005C2.36532 10.9833 1.96493 10.9326 1.82302 10.8845C1.53413 10.7882 1.32124 10.6371 1.16919 10.4866C0.880296 10.2018 0.733298 9.86168 0.707956 9.47446C0.687683 9.21902 0.723169 8.91593 0.905628 8.5799C1.04247 8.34119 1.35163 7.98184 1.90914 7.7487C2.492 7.50491 3.7439 7.27329 3.96691 7.21298C5.51781 6.79535 7.03832 6.16031 8.22937 5.05948C8.82236 4.50906 8.95917 3.91556 9.08081 3.17508ZM10.0742 7.48517C10.6723 8.72487 11.5643 9.76843 12.806 10.4258C13.3179 10.699 13.8754 10.9063 14.4532 11.0674C13.2622 11.8966 12.1573 12.8393 11.2804 13.7131C10.9966 13.9974 10.6875 14.4576 10.358 14.9629C9.97284 13.6137 9.40521 12.4019 8.47264 11.293C7.92019 10.6392 7.29676 10.0416 6.6024 9.54338C7.85934 9.04568 9.05044 8.37972 10.0742 7.48517Z" fill="#3C3679"/>
</svg>
